<?xml version="1.0" encoding="UTF-8"?>
<!DOCTYPE svg PUBLIC "-//W3C//DTD SVG 1.1//EN" "http://www.w3.org/Graphics/SVG/1.1/DTD/svg11.dtd">
<!-- Creator: CorelDRAW 2021 (64 Bit) -->
<svg xmlns="http://www.w3.org/2000/svg" xml:space="preserve" width="512px" height="321px" version="1.1" style="shape-rendering:geometricPrecision; text-rendering:geometricPrecision; image-rendering:optimizeQuality; fill-rule:evenodd; clip-rule:evenodd"
viewBox="0 0 166.42 104.26"
 xmlns:xlink="http://www.w3.org/1999/xlink"
 xmlns:xodm="http://www.corel.com/coreldraw/odm/2003">
 <defs>
  <style type="text/css">
   <![CDATA[
    .fil0 {fill:#8BC34A;fill-rule:nonzero}
   ]]>
  </style>
 </defs>
 <g id="Camada_x0020_1">
  <metadata id="CorelCorpID_0Corel-Layer"/>
  <g id="_2452570473408">
   <path class="fil0" d="M130.37 65.53c-1.31,0 -2.64,-0.42 -3.76,-1.28 -2.73,-2.08 -3.25,-5.98 -1.16,-8.7 3.76,-4.93 5.75,-10.68 5.75,-16.65 0,-6 -2.01,-11.79 -5.83,-16.74 -2.09,-2.72 -1.58,-6.62 1.13,-8.71 2.72,-2.09 6.62,-1.59 8.71,1.13 5.5,7.14 8.41,15.55 8.41,24.32 0,8.71 -2.87,17.08 -8.31,24.19 -1.22,1.6 -3.07,2.44 -4.94,2.44zm27.14 4.28c5.83,-9.38 8.91,-20.07 8.91,-30.91 0,-11.03 -3.18,-21.89 -9.21,-31.38 -1.83,-2.9 -5.67,-3.76 -8.56,-1.92 -2.9,1.84 -3.76,5.67 -1.92,8.57 4.76,7.5 7.28,16.06 7.28,24.73 0,8.52 -2.44,16.94 -7.04,24.35 -1.81,2.92 -0.92,6.75 1.99,8.55 1.02,0.64 2.16,0.94 3.27,0.94 2.08,0 4.11,-1.04 5.28,-2.93z"/>
   <path class="fil0" d="M55.69 104.26c0.95,0 1.9,-0.26 2.75,-0.79 13,-8.21 21.79,-18 26.79,-29.87 22.42,-6 36.75,-19.64 36.75,-35.24 0,-21.51 -26.79,-38.36 -60.99,-38.36 -34.2,0 -60.99,16.85 -60.99,38.36 0,13.62 10.9,25.89 29.15,32.83 2.67,1.01 5.66,-0.33 6.67,-3 1.01,-2.68 -0.33,-5.66 -3,-6.68 -13.86,-5.26 -22.47,-14.13 -22.47,-23.15 0,-15.18 23.19,-28.01 50.64,-28.01 27.45,0 50.64,12.83 50.64,28.01 0,11.05 -12.63,21.44 -31.42,25.83 -1.7,0.4 -3.08,1.62 -3.68,3.26 -1.67,4.58 -4.52,10.67 -10.89,17.18 0.7,-3.73 1.25,-8.03 1.47,-12.88 0.13,-2.85 -2.08,-5.27 -4.93,-5.4 -2.86,-0.15 -5.28,2.08 -5.41,4.93 -0.73,16.11 -5.58,25.23 -5.63,25.32 -1.12,2.07 -0.71,4.65 1.01,6.26 0.98,0.92 2.26,1.4 3.54,1.4zm-9.54 -28.66c-0.99,-0.15 -1.97,-0.32 -2.94,-0.5 -2.81,-0.53 -4.66,-3.23 -4.13,-6.04 0.53,-2.81 3.23,-4.66 6.04,-4.13 0.86,0.16 1.72,0.31 2.6,0.44 2.83,0.44 4.76,3.08 4.33,5.9 -0.39,2.56 -2.6,4.39 -5.11,4.39 -0.26,0 -0.52,-0.02 -0.79,-0.06z"/>
  </g>
 </g>
</svg>
